<svg xmlns="http://www.w3.org/2000/svg" width="512" height="512" viewBox="0 0 512 512">
  <defs>
    <linearGradient id="bg" x1="0" y1="0" x2="512" y2="512" gradientUnits="userSpaceOnUse">
      <stop offset="0%" stop-color="#1a3a5c"/>
      <stop offset="40%" stop-color="#115e59"/>
      <stop offset="100%" stop-color="#0d9488"/>
    </linearGradient>
  </defs>
  <rect width="512" height="512" fill="url(#bg)"/>
  <g transform="translate(256,256) scale(17.4)">
    <path d="M3.85 8.62a4 4 0 0 1 4.78-4.77 4 4 0 0 1 6.74 0 4 4 0 0 1 4.78 4.77 4 4 0 0 1 0 6.74 4 4 0 0 1-4.77 4.78 4 4 0 0 1-6.75 0 4 4 0 0 1-4.78-4.77 4 4 0 0 1 0-6.76Z"
          transform="translate(-12,-12)"
          fill="rgba(255,255,255,0.93)" stroke="none"/>
    <path d="m9 12 2 2 4-4"
          transform="translate(-12,-12)"
          fill="none" stroke="#115e59"
          stroke-width="1.5" stroke-linecap="round" stroke-linejoin="round"/>
  </g>
</svg>
